<?xml version="1.0" standalone="no"?>
<!DOCTYPE svg PUBLIC "-//W3C//DTD SVG 20010904//EN"
 "http://www.w3.org/TR/2001/REC-SVG-20010904/DTD/svg10.dtd">
<svg version="1.0" xmlns="http://www.w3.org/2000/svg"
 width="500.000000pt" height="500.000000pt" viewBox="0 0 500.000000 500.000000"
 preserveAspectRatio="xMidYMid meet">
<metadata>
Created by potrace 1.11, written by Peter Selinger 2001-2013
</metadata>
<g transform="translate(0.000000,500.000000) scale(0.100000,-0.100000)"
fill="#000000" stroke="none">
<path d="M1865 4797 c-94 -31 -153 -80 -247 -205 -86 -116 -193 -225 -343
-351 -177 -148 -212 -208 -203 -346 6 -96 34 -144 153 -261 65 -63 95 -101
100 -123 4 -18 5 -34 3 -35 -1 -1 -94 -40 -205 -86 l-203 -84 0 -378 c0 -208
1 -378 3 -378 1 0 107 45 235 99 127 54 234 96 236 92 2 -3 21 -201 42 -439
l38 -433 -34 -27 c-19 -14 -84 -74 -145 -133 -60 -58 -129 -124 -153 -145 -47
-41 -162 -207 -162 -234 0 -9 20 -58 45 -108 36 -76 58 -104 120 -164 42 -40
99 -101 126 -136 27 -34 72 -78 99 -98 l48 -35 0 -68 c0 -112 18 -140 207
-327 193 -190 226 -209 350 -202 95 6 143 32 246 136 48 48 119 119 159 157
93 89 120 143 120 241 l0 71 39 26 c21 14 59 50 82 78 24 29 78 86 120 126 90
87 116 123 163 224 l34 76 -39 67 c-21 37 -39 70 -39 73 0 3 18 3 40 0 65 -8
247 11 350 38 107 28 248 93 342 156 35 23 99 79 144 123 163 163 269 365 320
611 23 110 26 362 5 475 -35 194 -116 376 -287 647 -201 318 -204 326 -204
645 0 131 -3 238 -7 238 -5 0 -179 -72 -388 -158 l-380 -158 -45 47 c-25 26
-92 89 -150 140 -142 126 -219 207 -299 314 -82 109 -147 170 -209 198 -58 25
-171 32 -227 14z m155 -266 c14 -10 40 -38 58 -62 102 -138 195 -239 328 -358
82 -74 159 -146 171 -160 41 -47 32 -66 -87 -181 -60 -59 -110 -112 -110 -118
0 -14 -20 -22 510 198 228 95 420 174 426 177 7 3 13 -27 18 -85 13 -179 53
-272 241 -572 221 -351 275 -514 262 -793 -12 -256 -95 -460 -256 -631 -102
-107 -215 -176 -361 -219 -107 -32 -158 -39 -279 -38 -364 1 -611 226 -611
556 0 119 50 235 138 323 69 68 151 111 244 125 92 14 162 -7 223 -67 52 -52
69 -99 63 -177 -5 -71 -40 -122 -108 -156 -53 -28 -136 -30 -186 -7 -33 16
-86 68 -97 96 -10 23 -35 -19 -47 -78 -37 -179 96 -363 284 -392 115 -18 221
15 307 94 96 91 129 175 129 330 1 230 -63 395 -255 662 -160 223 -228 347
-261 477 -10 39 -19 72 -21 74 -3 5 -358 -138 -376 -152 -10 -9 -19 -61 -31
-192 -52 -575 -130 -1398 -150 -1573 -12 -111 -19 -202 -15 -202 4 0 45 40 90
90 45 49 88 90 94 90 10 0 249 -230 304 -292 l23 -27 -108 -112 c-60 -62 -128
-132 -150 -156 -54 -56 -80 -57 -131 -1 -99 109 -152 162 -156 158 -9 -8 -27
-158 -27 -216 0 -76 17 -109 94 -182 36 -34 66 -70 66 -79 0 -9 -32 -46 -72
-82 -40 -36 -103 -99 -141 -138 -99 -104 -95 -105 -267 66 -77 76 -140 147
-140 156 0 9 31 47 69 85 39 37 73 80 77 95 8 33 -2 244 -14 275 -8 23 -11 20
-160 -138 -56 -59 -83 -57 -142 9 -25 29 -89 96 -142 150 -54 54 -98 104 -98
112 0 8 35 48 77 88 43 41 112 110 155 154 75 78 77 79 103 65 15 -8 47 -40
70 -70 49 -64 93 -106 100 -98 9 9 -139 1626 -150 1636 -2 3 -100 -35 -217
-85 l-213 -90 -3 111 c-1 60 -1 115 1 121 3 5 97 48 211 95 l206 85 -6 85 c-9
125 -30 218 -60 263 -15 22 -62 74 -106 116 -134 127 -134 148 -6 251 115 93
325 302 390 390 112 151 155 174 228 121z m611 -1343 c18 -35 54 -96 81 -136
69 -102 69 -102 13 -102 -26 0 -74 -7 -107 -16 -33 -8 -63 -13 -66 -10 -3 3 0
68 7 143 19 214 22 220 72 121z"/>
</g>
</svg>
